<svg width="130" height="31" viewBox="0 0 130 31" fill="none" xmlns="http://www.w3.org/2000/svg">
<path d="M49.92 24H47.04V6.984H57.624V9.696H49.92V14.472H56.832V17.136H49.92V24ZM62.1705 20.88C62.8105 21.536 63.5865 21.864 64.4985 21.864C65.4105 21.864 66.1785 21.536 66.8025 20.88C67.4425 20.224 67.7625 19.312 67.7625 18.144C67.7625 16.992 67.4425 16.096 66.8025 15.456C66.1785 14.8 65.4105 14.472 64.4985 14.472C63.5865 14.472 62.8105 14.8 62.1705 15.456C61.5465 16.096 61.2345 16.992 61.2345 18.144C61.2345 19.296 61.5465 20.208 62.1705 20.88ZM64.4985 11.952C66.2585 11.952 67.7065 12.536 68.8425 13.704C69.9945 14.872 70.5705 16.352 70.5705 18.144C70.5705 19.936 69.9945 21.424 68.8425 22.608C67.7065 23.776 66.2585 24.36 64.4985 24.36C62.7545 24.36 61.3065 23.776 60.1545 22.608C59.0185 21.424 58.4505 19.936 58.4505 18.144C58.4505 16.352 59.0185 14.872 60.1545 13.704C61.3065 12.536 62.7545 11.952 64.4985 11.952ZM80.1009 12.24V15.072C79.7809 15.024 79.4769 15 79.1889 15C77.0929 15 76.0449 16.144 76.0449 18.432V24H73.2609V12.312H75.9729V14.184C76.2449 13.56 76.6849 13.072 77.2929 12.72C77.9009 12.352 78.5889 12.168 79.3569 12.168C79.6129 12.168 79.8609 12.192 80.1009 12.24ZM81.7284 20.832C81.7284 19.84 82.0484 19.048 82.6884 18.456C83.3444 17.848 84.2004 17.464 85.2564 17.304L88.2564 16.848C88.8324 16.768 89.1204 16.488 89.1204 16.008C89.1204 15.48 88.9364 15.056 88.5684 14.736C88.2004 14.4 87.6484 14.232 86.9124 14.232C86.2084 14.232 85.6484 14.432 85.2324 14.832C84.8164 15.216 84.5764 15.72 84.5124 16.344L81.9684 15.768C82.0804 14.712 82.5844 13.816 83.4804 13.08C84.3764 12.328 85.5124 11.952 86.8884 11.952C88.5844 11.952 89.8324 12.36 90.6324 13.176C91.4484 13.992 91.8564 15.04 91.8564 16.32V22.128C91.8564 22.896 91.9044 23.52 92.0004 24H89.4084C89.3284 23.76 89.2884 23.264 89.2884 22.512C88.5204 23.744 87.3204 24.36 85.6884 24.36C84.5044 24.36 83.5444 24.016 82.8084 23.328C82.0884 22.624 81.7284 21.792 81.7284 20.832ZM86.2164 22.176C87.0804 22.176 87.7764 21.944 88.3044 21.48C88.8484 21 89.1204 20.224 89.1204 19.152V18.624L86.0724 19.08C85.0324 19.256 84.5124 19.784 84.5124 20.664C84.5124 21.08 84.6644 21.44 84.9684 21.744C85.2724 22.032 85.6884 22.176 86.2164 22.176ZM94.3584 24.648L96.9264 23.976C97.0224 24.712 97.3344 25.312 97.8624 25.776C98.4064 26.256 99.0704 26.496 99.8544 26.496C102.062 26.496 103.166 25.328 103.166 22.992V21.768C102.894 22.264 102.462 22.672 101.87 22.992C101.278 23.312 100.582 23.472 99.7824 23.472C98.2144 23.472 96.9184 22.936 95.8944 21.864C94.8864 20.792 94.3824 19.432 94.3824 17.784C94.3824 16.2 94.8864 14.856 95.8944 13.752C96.9024 12.648 98.1984 12.096 99.7824 12.096C101.494 12.096 102.646 12.664 103.238 13.8V12.312H105.926V22.896C105.926 24.624 105.438 26.056 104.462 27.192C103.486 28.344 101.974 28.92 99.9264 28.92C98.4224 28.92 97.1584 28.512 96.1344 27.696C95.1104 26.88 94.5184 25.864 94.3584 24.648ZM100.238 21.096C101.134 21.096 101.854 20.8 102.398 20.208C102.958 19.6 103.238 18.792 103.238 17.784C103.238 16.792 102.958 16 102.398 15.408C101.838 14.8 101.118 14.496 100.238 14.496C99.3424 14.496 98.6064 14.8 98.0304 15.408C97.4704 16 97.1904 16.792 97.1904 17.784C97.1904 18.792 97.4704 19.6 98.0304 20.208C98.5904 20.8 99.3264 21.096 100.238 21.096ZM111.275 16.872H117.011C116.979 16.136 116.715 15.52 116.219 15.024C115.739 14.528 115.043 14.28 114.131 14.28C113.299 14.28 112.627 14.544 112.115 15.072C111.603 15.584 111.323 16.184 111.275 16.872ZM117.323 19.92L119.675 20.664C119.339 21.736 118.707 22.624 117.779 23.328C116.867 24.016 115.739 24.36 114.395 24.36C112.731 24.36 111.315 23.792 110.147 22.656C108.995 21.52 108.419 20 108.419 18.096C108.419 16.304 108.979 14.832 110.099 13.68C111.235 12.528 112.571 11.952 114.107 11.952C115.899 11.952 117.299 12.504 118.307 13.608C119.315 14.696 119.819 16.168 119.819 18.024C119.819 18.52 119.795 18.816 119.747 18.912H111.203C111.235 19.792 111.555 20.52 112.163 21.096C112.787 21.672 113.531 21.96 114.395 21.96C115.899 21.96 116.875 21.28 117.323 19.92ZM129.32 12.24V15.072C129 15.024 128.696 15 128.408 15C126.312 15 125.264 16.144 125.264 18.432V24H122.48V12.312H125.192V14.184C125.464 13.56 125.904 13.072 126.512 12.72C127.12 12.352 127.808 12.168 128.576 12.168C128.832 12.168 129.08 12.192 129.32 12.24Z" fill="#030047"/>
<path fill-rule="evenodd" clip-rule="evenodd" d="M0 6L12.5 13.4597V31L8.84615 28.9839V15.6774L0 10.2339V6Z" fill="#5A42FF"/>
<path fill-rule="evenodd" clip-rule="evenodd" d="M30 6L17.5 13.4597V31L21.1538 28.9839V15.6774L30 10.2339V6Z" fill="#5A42FF"/>
<path fill-rule="evenodd" clip-rule="evenodd" d="M4 3.29167L14.5238 9.75L25.25 3.29167L21.8095 1L14.5238 5.16667L7.64286 1L4 3.29167Z" fill="#5A42FF"/>
<path fill-rule="evenodd" clip-rule="evenodd" d="M23.75 17.5698L30 13.5V18.1802L23.75 22.25V17.5698Z" fill="#5A42FF"/>
<path fill-rule="evenodd" clip-rule="evenodd" d="M6.25 17.5698L0 13.5V18.1802L6.25 22.25V17.5698Z" fill="#5A42FF"/>
</svg>
