<?xml version="1.0" standalone="no"?>
<!DOCTYPE svg PUBLIC "-//W3C//DTD SVG 20010904//EN"
 "http://www.w3.org/TR/2001/REC-SVG-20010904/DTD/svg10.dtd">
<svg version="1.0" xmlns="http://www.w3.org/2000/svg"
 width="256.000000pt" height="256.000000pt" viewBox="0 0 256.000000 256.000000"
 preserveAspectRatio="xMidYMid meet">
<metadata>
Created by potrace 1.14, written by Peter Selinger 2001-2017
</metadata>
<g transform="translate(0.000000,256.000000) scale(0.100000,-0.100000)"
fill="#000000" stroke="none">
<path d="M1534 2284 l-282 -162 -262 159 c-145 88 -268 159 -274 158 -14 0
-267 -162 -269 -171 -2 -6 743 -469 789 -490 17 -8 83 28 415 227 217 131 402
243 413 250 16 12 5 22 -115 102 l-134 89 -281 -162z"/>
<path d="M125 1889 l0 -160 342 -211 343 -211 0 -516 0 -516 139 -77 c77 -43
141 -78 143 -78 2 0 3 306 3 681 0 670 0 681 -20 691 -11 6 -226 134 -478 285
-252 150 -462 273 -465 273 -4 0 -7 -72 -7 -161z"/>
<path d="M2389 2021 c-24 -16 -235 -142 -469 -281 -234 -139 -428 -257 -431
-262 -8 -13 -8 -1359 1 -1356 3 2 67 36 142 77 l135 74 -1 486 c-1 267 1 500
3 518 3 30 20 43 340 239 185 114 337 208 339 209 1 1 3 75 5 163 1 111 -1
162 -9 162 -6 0 -30 -13 -55 -29z"/>
<path d="M125 1288 c0 -107 5 -183 10 -185 6 -2 75 -46 155 -99 204 -134 304
-198 312 -202 5 -2 8 78 8 177 l0 181 -127 83 c-71 46 -175 114 -231 151 -57
37 -109 69 -116 72 -9 3 -12 -41 -11 -178z"/>
<path d="M2410 1450 c-14 -10 -108 -73 -210 -138 -102 -66 -196 -128 -209
-139 -23 -18 -23 -22 -23 -191 0 -95 2 -175 4 -177 2 -2 60 32 128 77 69 45
176 114 238 154 128 84 113 50 113 264 0 194 3 183 -41 150z"/>
</g>
</svg>
